<svg xmlns="http://www.w3.org/2000/svg" width="171.59" height="194.7" viewBox="0 0 171.59 194.7">
  <g id="Duotone" transform="translate(-2.306 -1)">
    <path id="路径_2" data-name="路径 2" d="M10,18.7a17.7,17.7,0,1,1,35.4,0V91.59a26.551,26.551,0,0,1-35.4,0Z" transform="translate(60.401)" fill="#7065e4"/>
    <path id="路径_3" data-name="路径 3" d="M39.4,48.25V21.7A17.7,17.7,0,1,0,4,21.7V48.455a17.919,17.919,0,0,1,2.708-.2Z" transform="translate(13.301 23.345)" fill="#7065e4"/>
    <path id="路径_4" data-name="路径 4" d="M51.4,56.3V20.7a17.7,17.7,0,1,0-35.4,0V56.1H48.692A17.931,17.931,0,0,1,51.4,56.3Z" transform="translate(107.501 15.495)" fill="#7065e4"/>
    <path id="路径_8" data-name="路径 8" d="M88.1,35.55a26.561,26.561,0,0,0,25.1-17.86C114.8,13.071,118.613,9,123.5,9h32.692c10.771,0,19.045,5.54,17.522,16.2l-11.557,93.9c-1.869,13.079-13.071,13.8-26.284,13.8H40.328c-13.213,0-24.415-.716-26.283-13.8L2.487,25.2C.964,14.54,9.238,9,20.009,9H52.7c4.888,0,8.706,4.071,10.3,8.69A26.562,26.562,0,0,0,88.1,35.55Z" transform="translate(0 62.8)" fill="#e7e5ff" fill-rule="evenodd"/>
  </g>
</svg>
